<svg width="20" height="20" viewBox="0 0 20 20" fill="none" xmlns="http://www.w3.org/2000/svg">
<g clip-path="url(#clip0_1259_6141)">
<path d="M1.13281 10C1.13281 6.68545 1.13281 5.02728 1.84573 3.79297C2.31267 2.98425 2.98425 2.31267 3.79297 1.84573C5.02728 1.13281 6.68545 1.13281 10 1.13281C13.3146 1.13281 14.9727 1.13281 16.207 1.84573C17.0158 2.31267 17.6873 2.98425 18.1543 3.79297C18.8672 5.02728 18.8672 6.68545 18.8672 10C18.8672 13.3146 18.8672 14.9727 18.1543 16.207C17.6873 17.0158 17.0158 17.6873 16.207 18.1543C14.9727 18.8672 13.3154 18.8672 10 18.8672C6.68456 18.8672 5.02728 18.8672 3.79297 18.1543C2.98425 17.6873 2.31267 17.0158 1.84573 16.207C1.13281 14.9727 1.13281 13.3154 1.13281 10Z" stroke="black" stroke-width="2"/>
<path d="M15.0967 4.90137H15.1002V4.90491H15.0967V4.90137ZM13.9883 10C13.9883 11.0583 13.5679 12.0732 12.8196 12.8215C12.0713 13.5698 11.0563 13.9902 9.99805 13.9902C8.93977 13.9902 7.92484 13.5698 7.17653 12.8215C6.42821 12.0732 6.00781 11.0583 6.00781 10C6.00781 8.94172 6.42821 7.92679 7.17653 7.17848C7.92484 6.43016 8.93977 6.00977 9.99805 6.00977C11.0563 6.00977 12.0713 6.43016 12.8196 7.17848C13.5679 7.92679 13.9883 8.94172 13.9883 10Z" stroke="black" stroke-width="2" stroke-linejoin="round"/>
</g>
<defs>
<clipPath id="clip0_1259_6141">
<rect width="20" height="20" fill="white"/>
</clipPath>
</defs>
</svg>
