<svg width="20" height="20" viewBox="0 0 20 20" fill="none" xmlns="http://www.w3.org/2000/svg">
<g clip-path="url(#clip0_1253_6127)">
<path d="M19.0343 18.708L12.5176 8.46654L18.9479 1.39287C19.0933 1.22894 19.1683 1.01429 19.1565 0.795459C19.1448 0.576631 19.0472 0.371261 18.885 0.223876C18.7228 0.0764899 18.5091 -0.00103252 18.2902 0.00811552C18.0712 0.0172636 17.8647 0.112345 17.7154 0.272745L11.59 7.01017L7.375 0.386215C7.29983 0.267909 7.19603 0.170487 7.07319 0.102975C6.95036 0.0354622 6.81248 4.34416e-05 6.67231 9.8516e-08H1.67546C1.52614 -7.25204e-05 1.37955 0.0400033 1.25103 0.116031C1.12251 0.192058 1.0168 0.301241 0.944961 0.432146C0.873123 0.563051 0.837801 0.710864 0.842696 0.860105C0.84759 1.00935 0.892519 1.15453 0.972779 1.28044L7.48951 11.5209L1.05918 18.5997C0.984092 18.6804 0.925757 18.7752 0.88756 18.8785C0.849363 18.9819 0.832063 19.0918 0.836663 19.202C0.841264 19.3121 0.867673 19.4202 0.91436 19.52C0.961047 19.6198 1.02708 19.7094 1.10864 19.7835C1.1902 19.8576 1.28566 19.9148 1.38948 19.9518C1.49331 19.9887 1.60344 20.0047 1.71348 19.9988C1.82353 19.9929 1.93131 19.9652 2.03057 19.9173C2.12983 19.8694 2.2186 19.8023 2.29174 19.7199L8.41705 12.9824L12.6321 19.6064C12.7079 19.7237 12.8119 19.8201 12.9347 19.8867C13.0575 19.9533 13.1951 19.9879 13.3348 19.9874H18.3316C18.4808 19.9874 18.6272 19.9473 18.7556 19.8713C18.8839 19.7953 18.9895 19.6862 19.0613 19.5555C19.1331 19.4248 19.1685 19.2771 19.1638 19.1281C19.159 18.979 19.1143 18.8339 19.0343 18.708ZM13.7918 18.3218L3.19221 1.66562H6.21115L16.8149 18.3218H13.7918Z" fill="white"/>
</g>
<defs>
<clipPath id="clip0_1253_6127">
<rect width="20" height="20" fill="white"/>
</clipPath>
</defs>
</svg>
